<svg xmlns="http://www.w3.org/2000/svg" viewBox="0 0 64 64" role="img" aria-label="SnapEat favicon">
  <defs>
    <linearGradient id="plate" x1="0" y1="0" x2="1" y2="1">
      <stop offset="0%" stop-color="#ff8b5e"/>
      <stop offset="100%" stop-color="#ff6b35"/>
    </linearGradient>
    <linearGradient id="steam" x1="0" y1="0" x2="0" y2="1">
      <stop offset="0%" stop-color="#ffd8c7"/>
      <stop offset="100%" stop-color="#ffffff"/>
    </linearGradient>
  </defs>

  <rect width="64" height="64" rx="16" fill="#1b1b1f"/>
  <circle cx="32" cy="36" r="18" fill="url(#plate)"/>
  <circle cx="32" cy="36" r="11.5" fill="#fff7f3"/>

  <path d="M23 23c0-3.6 2.6-6 6.2-6h2.8v12h-2.7c-3.7 0-6.3-2.2-6.3-6z" fill="#ffffff"/>
  <path d="M35 17h2.7c3.5 0 6.3 2.4 6.3 6s-2.7 6-6.4 6H35V17z" fill="#ffd6c3"/>

  <path d="M27 10c2.8 2.2 2.8 5.8 0 8" stroke="url(#steam)" stroke-width="2.8" stroke-linecap="round" fill="none"/>
  <path d="M37 10c2.8 2.2 2.8 5.8 0 8" stroke="url(#steam)" stroke-width="2.8" stroke-linecap="round" fill="none"/>
</svg>
